COMMENT vga
STARTFONT 2.1
FONT vga
SIZE 16 75 75
FONTBOUNDINGBOX 8 16 0 -4
STARTPROPERTIES 3
FONT_DESCENT 4
FONT_ASCENT 12
AVERAGE_WIDTH 80
DEFAULT_CHAR 0
ENDPROPERTIES
CHARS 224
STARTCHAR u0020
ENCODING 32
SWIDTH 666 0
DWIDTH 8 0
BBX 8 16 0 -4
BITMAP
00
00
00
00
00
00
00
00
00
00
00
00
00
00
00
00
ENDCHAR
STARTCHAR u005A
ENCODING 90
SWIDTH 666 0
DWIDTH 8 0
BBX 8 16 0 -4
BITMAP
00
00
00
FE
C6
86
0C
18
30
60
C2
C6
FE
00
00
00
ENDCHAR
STARTCHAR u00CE
ENCODING 206
SWIDTH 666 0
DWIDTH 8 0
BBX 8 16 0 -4
BITMAP
00
3C
66
00
3C
18
18
18
18
18
18
18
3C
00
00
00
ENDCHAR
STARTCHAR u0076
ENCODING 118
SWIDTH 666 0
DWIDTH 8 0
BBX 8 16 0 -4
BITMAP
00
00
00
00
00
00
C6
C6
C6
C6
C6
6C
38
00
00
00
ENDCHAR
STARTCHAR u0047
ENCODING 71
SWIDTH 666 0
DWIDTH 8 0
BBX 8 16 0 -4
BITMAP
00
00
00
3C
66
C2
C0
C0
DE
C6
C6
66
3A
00
00
00
ENDCHAR
STARTCHAR u1E41
ENCODING 7745
SWIDTH 666 0
DWIDTH 8 0
BBX 8 16 0 -4
BITMAP
00
00
00
00
30
00
EC
FE
D6
D6
D6
D6
C6
00
00
00
ENDCHAR
STARTCHAR u0066
ENCODING 102
SWIDTH 666 0
DWIDTH 8 0
BBX 8 16 0 -4
BITMAP
00
00
00
1C
36
32
30
78
30
30
30
30
78
00
00
00
ENDCHAR
STARTCHAR u255E
ENCODING 9566
SWIDTH 666 0
DWIDTH 8 0
BBX 8 16 0 -4
BITMAP
18
18
18
18
18
1F
18
1F
18
18
18
18
18
18
18
18
ENDCHAR
STARTCHAR u00C8
ENCODING 200
SWIDTH 666 0
DWIDTH 8 0
BBX 8 16 0 -4
BITMAP
00
30
18
00
FE
66
62
68
78
68
62
66
FE
00
00
00
ENDCHAR
STARTCHAR u0178
ENCODING 376
SWIDTH 666 0
DWIDTH 8 0
BBX 8 16 0 -4
BITMAP
00
66
00
66
66
66
66
3C
18
18
18
18
3C
00
00
00
ENDCHAR
STARTCHAR u007D
ENCODING 125
SWIDTH 666 0
DWIDTH 8 0
BBX 8 16 0 -4
BITMAP
00
00
00
70
18
18
18
0E
18
18
18
18
70
00
00
00
ENDCHAR
STARTCHAR u002C
ENCODING 44
SWIDTH 666 0
DWIDTH 8 0
BBX 8 16 0 -4
BITMAP
00
00
00
00
00
00
00
00
00
00
00
18
18
18
30
00
ENDCHAR
STARTCHAR u0037
ENCODING 55
SWIDTH 666 0
DWIDTH 8 0
BBX 8 16 0 -4
BITMAP
00
00
00
FE
C6
06
06
0C
18
30
30
30
30
00
00
00
ENDCHAR
STARTCHAR u0054
ENCODING 84
SWIDTH 666 0
DWIDTH 8 0
BBX 8 16 0 -4
BITMAP
00
00
00
7E
7E
5A
18
18
18
18
18
18
3C
00
00
00
ENDCHAR
STARTCHAR u00E9
ENCODING 233
SWIDTH 666 0
DWIDTH 8 0
BBX 8 16 0 -4
BITMAP
00
00
0C
18
30
00
7C
C6
FE
C0
C0
C6
7C
00
00
00
ENDCHAR
STARTCHAR u00C2
ENCODING 194
SWIDTH 666 0
DWIDTH 8 0
BBX 8 16 0 -4
BITMAP
00
7C
C6
10
38
6C
C6
C6
FE
C6
C6
C6
C6
00
00
00
ENDCHAR
STARTCHAR u005F
ENCODING 95
SWIDTH 666 0
DWIDTH 8 0
BBX 8 16 0 -4
BITMAP
00
00
00
00
00
00
00
00
00
00
00
00
00
00
FF
00
ENDCHAR
STARTCHAR u0039
ENCODING 57
SWIDTH 666 0
DWIDTH 8 0
BBX 8 16 0 -4
BITMAP
00
00
00
7C
C6
C6
C6
7E
06
06
06
0C
78
00
00
00
ENDCHAR
STARTCHAR u00DC
ENCODING 220
SWIDTH 666 0
DWIDTH 8 0
BBX 8 16 0 -4
BITMAP
00
00
C6
00
C6
C6
C6
C6
C6
C6
C6
C6
7C
00
00
00
ENDCHAR
STARTCHAR u1EF2
ENCODING 7922
SWIDTH 666 0
DWIDTH 8 0
BBX 8 16 0 -4
BITMAP
30
18
00
66
66
66
66
3C
18
18
18
18
3C
00
00
00
ENDCHAR
STARTCHAR u00F3
ENCODING 243
SWIDTH 666 0
DWIDTH 8 0
BBX 8 16 0 -4
BITMAP
00
00
18
30
60
00
7C
C6
C6
C6
C6
C6
7C
00
00
00
ENDCHAR
STARTCHAR u00E7
ENCODING 231
SWIDTH 666 0
DWIDTH 8 0
BBX 8 16 0 -4
BITMAP
00
00
00
00
00
00
7C
C6
C0
C0
C0
C6
7C
18
70
00
ENDCHAR
STARTCHAR u00A3
ENCODING 163
SWIDTH 666 0
DWIDTH 8 0
BBX 8 16 0 -4
BITMAP
00
00
38
6C
64
60
F0
60
60
60
60
E6
FC
00
00
00
ENDCHAR
STARTCHAR u006D
ENCODING 109
SWIDTH 666 0
DWIDTH 8 0
BBX 8 16 0 -4
BITMAP
00
00
00
00
00
00
EC
FE
D6
D6
D6
D6
C6
00
00
00
ENDCHAR
STARTCHAR u2514
ENCODING 9492
SWIDTH 666 0
DWIDTH 8 0
BBX 8 16 0 -4
BITMAP
18
18
18
18
18
18
18
1F
00
00
00
00
00
00
00
00
ENDCHAR
STARTCHAR u2534
ENCODING 9524
SWIDTH 666 0
DWIDTH 8 0
BBX 8 16 0 -4
BITMAP
18
18
18
18
18
18
18
FF
00
00
00
00
00
00
00
00
ENDCHAR
STARTCHAR u0059
ENCODING 89
SWIDTH 666 0
DWIDTH 8 0
BBX 8 16 0 -4
BITMAP
00
00
00
66
66
66
66
3C
18
18
18
18
3C
00
00
00
ENDCHAR
STARTCHAR u1E82
ENCODING 7810
SWIDTH 666 0
DWIDTH 8 0
BBX 8 16 0 -4
BITMAP
0C
18
00
C6
C6
C6
C6
D6
D6
D6
FE
EE
6C
00
00
00
ENDCHAR
STARTCHAR u20A0
ENCODING 8352
SWIDTH 666 0
DWIDTH 8 0
BBX 8 16 0 -4
BITMAP
00
00
1C
32
60
60
FC
60
FC
60
60
32
1C
00
00
00
ENDCHAR
STARTCHAR u0023
ENCODING 35
SWIDTH 666 0
DWIDTH 8 0
BBX 8 16 0 -4
BITMAP
00
00
00
00
6C
6C
FE
6C
6C
6C
FE
6C
6C
00
00
00
ENDCHAR
STARTCHAR u004E
ENCODING 78
SWIDTH 666 0
DWIDTH 8 0
BBX 8 16 0 -4
BITMAP
00
00
00
C6
E6
F6
FE
DE
CE
C6
C6
C6
C6
00
00
00
ENDCHAR
STARTCHAR u005D
ENCODING 93
SWIDTH 666 0
DWIDTH 8 0
BBX 8 16 0 -4
BITMAP
00
00
00
3C
0C
0C
0C
0C
0C
0C
0C
0C
3C
00
00
00
ENDCHAR
STARTCHAR u006A
ENCODING 106
SWIDTH 666 0
DWIDTH 8 0
BBX 8 16 0 -4
BITMAP
00
00
00
06
06
00
0E
06
06
06
06
06
06
66
66
3C
ENDCHAR
STARTCHAR u0041
ENCODING 65
SWIDTH 666 0
DWIDTH 8 0
BBX 8 16 0 -4
BITMAP
00
00
00
10
38
6C
C6
C6
FE
C6
C6
C6
C6
00
00
00
ENDCHAR
STARTCHAR u00C5
ENCODING 197
SWIDTH 666 0
DWIDTH 8 0
BBX 8 16 0 -4
BITMAP
00
38
6C
38
10
38
6C
C6
C6
FE
C6
C6
C6
00
00
00
ENDCHAR
STARTCHAR u00CB
ENCODING 203
SWIDTH 666 0
DWIDTH 8 0
BBX 8 16 0 -4
BITMAP
00
00
C6
00
FE
66
62
68
78
68
62
66
FE
00
00
00
ENDCHAR
STARTCHAR u0176
ENCODING 374
SWIDTH 666 0
DWIDTH 8 0
BBX 8 16 0 -4
BITMAP
00
3C
66
00
66
66
66
3C
18
18
18
18
3C
00
00
00
ENDCHAR
STARTCHAR u00C7
ENCODING 199
SWIDTH 666 0
DWIDTH 8 0
BBX 8 16 0 -4
BITMAP
00
00
00
3C
66
C2
C0
C0
C0
C0
C2
66
3C
18
70
00
ENDCHAR
STARTCHAR u0072
ENCODING 114
SWIDTH 666 0
DWIDTH 8 0
BBX 8 16 0 -4
BITMAP
00
00
00
00
00
00
DC
76
66
60
60
60
F0
00
00
00
ENDCHAR
STARTCHAR u00E2
ENCODING 226
SWIDTH 666 0
DWIDTH 8 0
BBX 8 16 0 -4
BITMAP
00
00
10
38
6C
00
78
0C
7C
CC
CC
CC
76
00
00
00
ENDCHAR
STARTCHAR u003A
ENCODING 58
SWIDTH 666 0
DWIDTH 8 0
BBX 8 16 0 -4
BITMAP
00
00
00
00
00
18
18
00
00
00
18
18
00
00
00
00
ENDCHAR
STARTCHAR u00D3
ENCODING 211
SWIDTH 666 0
DWIDTH 8 0
BBX 8 16 0 -4
BITMAP
00
18
30
00
7C
C6
C6
C6
C6
C6
C6
C6
7C
00
00
00
ENDCHAR
STARTCHAR u0051
ENCODING 81
SWIDTH 666 0
DWIDTH 8 0
BBX 8 16 0 -4
BITMAP
00
00
00
7C
C6
C6
C6
C6
C6
C6
D6
DE
7C
0C
0E
00
ENDCHAR
STARTCHAR u003C
ENCODING 60
SWIDTH 666 0
DWIDTH 8 0
BBX 8 16 0 -4
BITMAP
00
00
00
00
06
0C
18
30
60
30
18
0C
06
00
00
00
ENDCHAR
STARTCHAR u2592
ENCODING 9618
SWIDTH 666 0
DWIDTH 8 0
BBX 8 16 0 -4
BITMAP
55
AA
55
AA
55
AA
55
AA
55
AA
55
AA
55
AA
55
AA
ENDCHAR
STARTCHAR u0065
ENCODING 101
SWIDTH 666 0
DWIDTH 8 0
BBX 8 16 0 -4
BITMAP
00
00
00
00
00
00
7C
C6
FE
C0
C0
C6
7C
00
00
00
ENDCHAR
STARTCHAR u0049
ENCODING 73
SWIDTH 666 0
DWIDTH 8 0
BBX 8 16 0 -4
BITMAP
00
00
00
3C
18
18
18
18
18
18
18
18
3C
00
00
00
ENDCHAR
STARTCHAR u0056
ENCODING 86
SWIDTH 666 0
DWIDTH 8 0
BBX 8 16 0 -4
BITMAP
00
00
00
C6
C6
C6
C6
C6
C6
C6
6C
38
10
00
00
00
ENDCHAR
STARTCHAR u004C
ENCODING 76
SWIDTH 666 0
DWIDTH 8 0
BBX 8 16 0 -4
BITMAP
00
00
00
F0
60
60
60
60
60
60
62
66
FE
00
00
00
ENDCHAR
STARTCHAR u003E
ENCODING 62
SWIDTH 666 0
DWIDTH 8 0
BBX 8 16 0 -4
BITMAP
00
00
00
00
60
30
18
0C
06
0C
18
30
60
00
00
00
ENDCHAR
STARTCHAR u0043
ENCODING 67
SWIDTH 666 0
DWIDTH 8 0
BBX 8 16 0 -4
BITMAP
00
00
00
3C
66
C2
C0
C0
C0
C0
C2
66
3C
00
00
00
ENDCHAR
STARTCHAR u00CC
ENCODING 204
SWIDTH 666 0
DWIDTH 8 0
BBX 8 16 0 -4
BITMAP
00
30
18
00
3C
18
18
18
18
18
18
18
3C
00
00
00
ENDCHAR
STARTCHAR u00F1
ENCODING 241
SWIDTH 666 0
DWIDTH 8 0
BBX 8 16 0 -4
BITMAP
00
00
00
76
DC
00
DC
66
66
66
66
66
66
00
00
00
ENDCHAR
STARTCHAR u0121
ENCODING 289
SWIDTH 666 0
DWIDTH 8 0
BBX 8 16 0 -4
BITMAP
00
00
00
00
18
00
76
CC
CC
CC
CC
CC
7C
0C
CC
78
ENDCHAR
STARTCHAR u00C6
ENCODING 198
SWIDTH 666 0
DWIDTH 8 0
BBX 8 16 0 -4
BITMAP
00
00
00
3E
6C
CC
CC
FE
CC
CC
CC
CC
CE
00
00
00
ENDCHAR
STARTCHAR u2561
ENCODING 9569
SWIDTH 666 0
DWIDTH 8 0
BBX 8 16 0 -4
BITMAP
18
18
18
18
18
F8
18
F8
18
18
18
18
18
18
18
18
ENDCHAR
STARTCHAR u1E61
ENCODING 7777
SWIDTH 666 0
DWIDTH 8 0
BBX 8 16 0 -4
BITMAP
00
00
00
00
18
00
7C
C6
60
38
0C
C6
7C
00
00
00
ENDCHAR
STARTCHAR u253C
ENCODING 9532
SWIDTH 666 0
DWIDTH 8 0
BBX 8 16 0 -4
BITMAP
18
18
18
18
18
18
18
FF
18
18
18
18
18
18
18
18
ENDCHAR
STARTCHAR u006E
ENCODING 110
SWIDTH 666 0
DWIDTH 8 0
BBX 8 16 0 -4
BITMAP
00
00
00
00
00
00
DC
66
66
66
66
66
66
00
00
00
ENDCHAR
STARTCHAR u0052
ENCODING 82
SWIDTH 666 0
DWIDTH 8 0
BBX 8 16 0 -4
BITMAP
00
00
00
FC
66
66
66
7C
6C
66
66
66
E6
00
00
00
ENDCHAR
STARTCHAR u00E4
ENCODING 228
SWIDTH 666 0
DWIDTH 8 0
BBX 8 16 0 -4
BITMAP
00
00
00
CC
00
00
78
0C
7C
CC
CC
CC
76
00
00
00
ENDCHAR
STARTCHAR u1E1E
ENCODING 7710
SWIDTH 666 0
DWIDTH 8 0
BBX 8 16 0 -4
BITMAP
00
18
00
FE
66
62
68
78
68
60
60
60
F0
00
00
00
ENDCHAR
STARTCHAR u00EC
ENCODING 236
SWIDTH 666 0
DWIDTH 8 0
BBX 8 16 0 -4
BITMAP
00
00
60
30
18
00
38
18
18
18
18
18
3C
00
00
00
ENDCHAR
STARTCHAR u00F9
ENCODING 249
SWIDTH 666 0
DWIDTH 8 0
BBX 8 16 0 -4
BITMAP
00
00
60
30
18
00
CC
CC
CC
CC
CC
CC
76
00
00
00
ENDCHAR
STARTCHAR u00DA
ENCODING 218
SWIDTH 666 0
DWIDTH 8 0
BBX 8 16 0 -4
BITMAP
00
18
30
00
C6
C6
C6
C6
C6
C6
C6
C6
7C
00
00
00
ENDCHAR
STARTCHAR u00CA
ENCODING 202
SWIDTH 666 0
DWIDTH 8 0
BBX 8 16 0 -4
BITMAP
00
38
6C
00
FE
66
62
68
78
68
62
66
FE
00
00
00
ENDCHAR
STARTCHAR u0070
ENCODING 112
SWIDTH 666 0
DWIDTH 8 0
BBX 8 16 0 -4
BITMAP
00
00
00
00
00
00
DC
66
66
66
66
66
7C
60
60
F0
ENDCHAR
STARTCHAR u0045
ENCODING 69
SWIDTH 666 0
DWIDTH 8 0
BBX 8 16 0 -4
BITMAP
00
00
00
FE
66
62
68
78
68
60
62
66
FE
00
00
00
ENDCHAR
STARTCHAR u0031
ENCODING 49
SWIDTH 666 0
DWIDTH 8 0
BBX 8 16 0 -4
BITMAP
00
00
00
18
38
78
18
18
18
18
18
18
7E
00
00
00
ENDCHAR
STARTCHAR u1E6A
ENCODING 7786
SWIDTH 666 0
DWIDTH 8 0
BBX 8 16 0 -4
BITMAP
00
18
00
7E
7E
5A
18
18
18
18
18
18
3C
00
00
00
ENDCHAR
STARTCHAR u00E0
ENCODING 224
SWIDTH 666 0
DWIDTH 8 0
BBX 8 16 0 -4
BITMAP
00
00
60
30
18
00
78
0C
7C
CC
CC
CC
76
00
00
00
ENDCHAR
STARTCHAR u250C
ENCODING 9484
SWIDTH 666 0
DWIDTH 8 0
BBX 8 16 0 -4
BITMAP
36
36
36
36
36
F7
00
FF
00
00
00
00
00
00
00
00
ENDCHAR
STARTCHAR u00DF
ENCODING 223
SWIDTH 666 0
DWIDTH 8 0
BBX 8 16 0 -4
BITMAP
00
00
00
78
CC
CC
CC
D8
CC
C6
C6
C6
CC
00
00
00
ENDCHAR
STARTCHAR u007C
ENCODING 124
SWIDTH 666 0
DWIDTH 8 0
BBX 8 16 0 -4
BITMAP
00
00
00
18
18
18
18
18
18
18
18
18
18
00
00
00
ENDCHAR
STARTCHAR u0068
ENCODING 104
SWIDTH 666 0
DWIDTH 8 0
BBX 8 16 0 -4
BITMAP
00
00
00
E0
60
60
6C
76
66
66
66
66
E6
00
00
00
ENDCHAR
STARTCHAR u1EF3
ENCODING 7923
SWIDTH 666 0
DWIDTH 8 0
BBX 8 16 0 -4
BITMAP
00
00
00
30
18
00
C6
C6
C6
C6
C6
C6
7E
06
0C
F8
ENDCHAR
STARTCHAR u00EA
ENCODING 234
SWIDTH 666 0
DWIDTH 8 0
BBX 8 16 0 -4
BITMAP
00
00
10
38
6C
00
7C
C6
FE
C0
C0
C6
7C
00
00
00
ENDCHAR
STARTCHAR u0079
ENCODING 121
SWIDTH 666 0
DWIDTH 8 0
BBX 8 16 0 -4
BITMAP
00
00
00
00
00
00
C6
C6
C6
C6
C6
C6
7E
06
0C
F8
ENDCHAR
STARTCHAR u004F
ENCODING 79
SWIDTH 666 0
DWIDTH 8 0
BBX 8 16 0 -4
BITMAP
00
00
00
7C
C6
C6
C6
C6
C6
C6
C6
C6
7C
00
00
00
ENDCHAR
STARTCHAR u00D4
ENCODING 212
SWIDTH 666 0
DWIDTH 8 0
BBX 8 16 0 -4
BITMAP
00
38
6C
00
7C
C6
C6
C6
C6
C6
C6
C6
7C
00
00
00
ENDCHAR
STARTCHAR u2518
ENCODING 9496
SWIDTH 666 0
DWIDTH 8 0
BBX 8 16 0 -4
BITMAP
00
00
00
00
00
3F
30
37
36
36
36
36
36
36
36
36
ENDCHAR
STARTCHAR u1E85
ENCODING 7813
SWIDTH 666 0
DWIDTH 8 0
BBX 8 16 0 -4
BITMAP
00
00
00
00
C6
00
C6
C6
D6
D6
D6
FE
6C
00
00
00
ENDCHAR
STARTCHAR u0060
ENCODING 96
SWIDTH 666 0
DWIDTH 8 0
BBX 8 16 0 -4
BITMAP
00
00
30
18
0C
00
00
00
00
00
00
00
00
00
00
00
ENDCHAR
STARTCHAR u256C
ENCODING 9580
SWIDTH 666 0
DWIDTH 8 0
BBX 8 16 0 -4
BITMAP
36
36
36
36
36
F7
00
F7
36
36
36
36
36
36
36
36
ENDCHAR
STARTCHAR u007E
ENCODING 126
SWIDTH 666 0
DWIDTH 8 0
BBX 8 16 0 -4
BITMAP
00
00
76
DC
00
00
00
00
00
00
00
00
00
00
00
00
ENDCHAR
STARTCHAR u00EE
ENCODING 238
SWIDTH 666 0
DWIDTH 8 0
BBX 8 16 0 -4
BITMAP
00
00
18
3C
66
00
38
18
18
18
18
18
3C
00
00
00
ENDCHAR
STARTCHAR u2563
ENCODING 9571
SWIDTH 666 0
DWIDTH 8 0
BBX 8 16 0 -4
BITMAP
36
36
36
36
36
F6
06
F6
36
36
36
36
36
36
36
36
ENDCHAR
STARTCHAR u00FB
ENCODING 251
SWIDTH 666 0
DWIDTH 8 0
BBX 8 16 0 -4
BITMAP
00
00
30
78
CC
00
CC
CC
CC
CC
CC
CC
76
00
00
00
ENDCHAR
STARTCHAR u2591
ENCODING 9617
SWIDTH 666 0
DWIDTH 8 0
BBX 8 16 0 -4
BITMAP
11
44
11
44
11
44
11
44
11
44
11
44
11
44
11
44
ENDCHAR
STARTCHAR u00FD
ENCODING 253
SWIDTH 666 0
DWIDTH 8 0
BBX 8 16 0 -4
BITMAP
00
00
0C
18
30
00
C6
C6
C6
C6
C6
C6
7E
06
0C
F8
ENDCHAR
STARTCHAR u2524
ENCODING 9508
SWIDTH 666 0
DWIDTH 8 0
BBX 8 16 0 -4
BITMAP
18
18
18
18
18
18
18
F8
18
18
18
18
18
18
18
18
ENDCHAR
STARTCHAR u00A0
ENCODING 160
SWIDTH 666 0
DWIDTH 8 0
BBX 8 16 0 -4
BITMAP
00
00
00
00
00
00
00
00
00
00
00
00
00
00
00
00
ENDCHAR
STARTCHAR u2551
ENCODING 9553
SWIDTH 666 0
DWIDTH 8 0
BBX 8 16 0 -4
BITMAP
36
36
36
36
36
36
36
36
36
36
36
36
36
36
36
36
ENDCHAR
STARTCHAR u2550
ENCODING 9552
SWIDTH 666 0
DWIDTH 8 0
BBX 8 16 0 -4
BITMAP
00
00
00
00
00
FF
00
FF
00
00
00
00
00
00
00
00
ENDCHAR
STARTCHAR u002F
ENCODING 47
SWIDTH 666 0
DWIDTH 8 0
BBX 8 16 0 -4
BITMAP
00
00
00
00
00
02
06
0C
18
30
60
C0
80
00
00
00
ENDCHAR
STARTCHAR u00D1
ENCODING 209
SWIDTH 666 0
DWIDTH 8 0
BBX 8 16 0 -4
BITMAP
00
76
DC
00
C6
E6
F6
FE
DE
CE
C6
C6
C6
00
00
00
ENDCHAR
STARTCHAR u0062
ENCODING 98
SWIDTH 666 0
DWIDTH 8 0
BBX 8 16 0 -4
BITMAP
00
00
00
E0
60
60
78
6C
66
66
66
66
7C
00
00
00
ENDCHAR
STARTCHAR u00D8
ENCODING 216
SWIDTH 666 0
DWIDTH 8 0
BBX 8 16 0 -4
BITMAP
00
00
04
7C
CE
CE
D6
D6
D6
D6
E6
E6
7C
40
00
00
ENDCHAR
STARTCHAR u0025
ENCODING 37
SWIDTH 666 0
DWIDTH 8 0
BBX 8 16 0 -4
BITMAP
00
00
00
00
00
C2
C6
0C
18
30
60
C6
86
00
00
00
ENDCHAR
STARTCHAR u0174
ENCODING 372
SWIDTH 666 0
DWIDTH 8 0
BBX 8 16 0 -4
BITMAP
00
7C
C6
00
C6
C6
C6
D6
D6
D6
FE
EE
6C
00
00
00
ENDCHAR
STARTCHAR u0075
ENCODING 117
SWIDTH 666 0
DWIDTH 8 0
BBX 8 16 0 -4
BITMAP
00
00
00
00
00
00
CC
CC
CC
CC
CC
CC
76
00
00
00
ENDCHAR
STARTCHAR u002B
ENCODING 43
SWIDTH 666 0
DWIDTH 8 0
BBX 8 16 0 -4
BITMAP
00
00
00
00
00
00
18
18
7E
18
18
00
00
00
00
00
ENDCHAR
STARTCHAR u00C3
ENCODING 195
SWIDTH 666 0
DWIDTH 8 0
BBX 8 16 0 -4
BITMAP
00
76
DC
00
38
6C
C6
C6
FE
C6
C6
C6
C6
00
00
00
ENDCHAR
STARTCHAR u1E56
ENCODING 7766
SWIDTH 666 0
DWIDTH 8 0
BBX 8 16 0 -4
BITMAP
00
30
00
FC
66
66
66
7C
60
60
60
60
F0
00
00
00
ENDCHAR
STARTCHAR u0021
ENCODING 33
SWIDTH 666 0
DWIDTH 8 0
BBX 8 16 0 -4
BITMAP
00
00
00
18
3C
3C
3C
18
18
18
00
18
18
00
00
00
ENDCHAR
STARTCHAR u003F
ENCODING 63
SWIDTH 666 0
DWIDTH 8 0
BBX 8 16 0 -4
BITMAP
00
00
00
7C
C6
C6
0C
18
18
18
00
18
18
00
00
00
ENDCHAR
STARTCHAR u00E3
ENCODING 227
SWIDTH 666 0
DWIDTH 8 0
BBX 8 16 0 -4
BITMAP
00
00
00
76
DC
00
78
0C
7C
CC
CC
CC
76
00
00
00
ENDCHAR
STARTCHAR u1E81
ENCODING 7809
SWIDTH 666 0
DWIDTH 8 0
BBX 8 16 0 -4
BITMAP
00
00
00
30
18
00
C6
C6
D6
D6
D6
FE
6C
00
00
00
ENDCHAR
STARTCHAR u0050
ENCODING 80
SWIDTH 666 0
DWIDTH 8 0
BBX 8 16 0 -4
BITMAP
00
00
00
FC
66
66
66
7C
60
60
60
60
F0
00
00
00
ENDCHAR
STARTCHAR u00C1
ENCODING 193
SWIDTH 666 0
DWIDTH 8 0
BBX 8 16 0 -4
BITMAP
00
60
C0
10
38
6C
C6
C6
FE
C6
C6
C6
C6
00
00
00
ENDCHAR
STARTCHAR u0120
ENCODING 288
SWIDTH 666 0
DWIDTH 8 0
BBX 8 16 0 -4
BITMAP
00
18
00
3C
66
C2
C0
C0
DE
C6
C6
66
3A
00
00
00
ENDCHAR
STARTCHAR u1E0B
ENCODING 7691
SWIDTH 666 0
DWIDTH 8 0
BBX 8 16 0 -4
BITMAP
00
18
00
1C
0C
0C
3C
6C
CC
CC
CC
CC
76
00
00
00
ENDCHAR
STARTCHAR u2555
ENCODING 9557
SWIDTH 666 0
DWIDTH 8 0
BBX 8 16 0 -4
BITMAP
00
00
00
00
00
F8
18
F8
18
18
18
18
18
18
18
18
ENDCHAR
STARTCHAR u251C
ENCODING 9500
SWIDTH 666 0
DWIDTH 8 0
BBX 8 16 0 -4
BITMAP
18
18
18
18
18
18
18
1F
18
18
18
18
18
18
18
18
ENDCHAR
STARTCHAR u0077
ENCODING 119
SWIDTH 666 0
DWIDTH 8 0
BBX 8 16 0 -4
BITMAP
00
00
00
00
00
00
C6
C6
D6
D6
D6
FE
6C
00
00
00
ENDCHAR
STARTCHAR u0063
ENCODING 99
SWIDTH 666 0
DWIDTH 8 0
BBX 8 16 0 -4
BITMAP
00
00
00
00
00
00
7C
C6
C0
C0
C0
C6
7C
00
00
00
ENDCHAR
STARTCHAR u00F4
ENCODING 244
SWIDTH 666 0
DWIDTH 8 0
BBX 8 16 0 -4
BITMAP
00
00
10
38
6C
00
7C
C6
C6
C6
C6
C6
7C
00
00
00
ENDCHAR
STARTCHAR u0048
ENCODING 72
SWIDTH 666 0
DWIDTH 8 0
BBX 8 16 0 -4
BITMAP
00
00
00
C6
C6
C6
C6
FE
C6
C6
C6
C6
C6
00
00
00
ENDCHAR
STARTCHAR u00FF
ENCODING 255
SWIDTH 666 0
DWIDTH 8 0
BBX 8 16 0 -4
BITMAP
00
00
C6
00
00
C6
C6
C6
C6
C6
C6
7E
06
0C
78
00
ENDCHAR
STARTCHAR u00F6
ENCODING 246
SWIDTH 666 0
DWIDTH 8 0
BBX 8 16 0 -4
BITMAP
00
00
00
C6
00
00
7C
C6
C6
C6
C6
C6
7C
00
00
00
ENDCHAR
STARTCHAR u1E84
ENCODING 7812
SWIDTH 666 0
DWIDTH 8 0
BBX 8 16 0 -4
BITMAP
00
C6
00
C6
C6
C6
C6
D6
D6
D6
FE
EE
6C
00
00
00
ENDCHAR
STARTCHAR u004A
ENCODING 74
SWIDTH 666 0
DWIDTH 8 0
BBX 8 16 0 -4
BITMAP
00
00
00
1E
0C
0C
0C
0C
0C
CC
CC
CC
78
00
00
00
ENDCHAR
STARTCHAR u00B6
ENCODING 182
SWIDTH 666 0
DWIDTH 8 0
BBX 8 16 0 -4
BITMAP
00
00
7F
DB
DB
DB
7B
1B
1B
1B
1B
1B
00
00
00
00
ENDCHAR
STARTCHAR u1E0A
ENCODING 7690
SWIDTH 666 0
DWIDTH 8 0
BBX 8 16 0 -4
BITMAP
00
30
00
F8
6C
66
66
66
66
66
66
6C
F8
00
00
00
ENDCHAR
STARTCHAR u003D
ENCODING 61
SWIDTH 666 0
DWIDTH 8 0
BBX 8 16 0 -4
BITMAP
00
00
00
00
00
00
7E
00
00
7E
00
00
00
00
00
00
ENDCHAR
STARTCHAR u00E6
ENCODING 230
SWIDTH 666 0
DWIDTH 8 0
BBX 8 16 0 -4
BITMAP
00
00
00
00
00
00
EC
36
36
7E
D8
D8
6E
00
00
00
ENDCHAR
STARTCHAR u20AC
ENCODING 8364
SWIDTH 666 0
DWIDTH 8 0
BBX 8 16 0 -4
BITMAP
00
00
00
10
7C
D6
D0
D0
D0
D6
7C
10
00
00
00
00
ENDCHAR
STARTCHAR u006C
ENCODING 108
SWIDTH 666 0
DWIDTH 8 0
BBX 8 16 0 -4
BITMAP
00
00
00
38
18
18
18
18
18
18
18
18
3C
00
00
00
ENDCHAR
STARTCHAR u0073
ENCODING 115
SWIDTH 666 0
DWIDTH 8 0
BBX 8 16 0 -4
BITMAP
00
00
00
00
00
00
7C
C6
60
38
0C
C6
7C
00
00
00
ENDCHAR
STARTCHAR u1E40
ENCODING 7744
SWIDTH 666 0
DWIDTH 8 0
BBX 8 16 0 -4
BITMAP
00
30
00
C6
EE
FE
FE
D6
C6
C6
C6
C6
C6
00
00
00
ENDCHAR
STARTCHAR u005C
ENCODING 92
SWIDTH 666 0
DWIDTH 8 0
BBX 8 16 0 -4
BITMAP
00
00
00
00
80
C0
E0
70
38
1C
0E
06
02
00
00
00
ENDCHAR
STARTCHAR u0067
ENCODING 103
SWIDTH 666 0
DWIDTH 8 0
BBX 8 16 0 -4
BITMAP
00
00
00
00
00
00
76
CC
CC
CC
CC
CC
7C
0C
CC
78
ENDCHAR
STARTCHAR u2510
ENCODING 9488
SWIDTH 666 0
DWIDTH 8 0
BBX 8 16 0 -4
BITMAP
00
00
00
00
00
00
00
F8
18
18
18
18
18
18
18
18
ENDCHAR
STARTCHAR u00C9
ENCODING 201
SWIDTH 666 0
DWIDTH 8 0
BBX 8 16 0 -4
BITMAP
00
0C
18
00
FE
66
62
68
78
68
62
66
FE
00
00
00
ENDCHAR
STARTCHAR u255D
ENCODING 9565
SWIDTH 666 0
DWIDTH 8 0
BBX 8 16 0 -4
BITMAP
36
36
36
36
36
F6
06
FE
00
00
00
00
00
00
00
00
ENDCHAR
STARTCHAR u255A
ENCODING 9562
SWIDTH 666 0
DWIDTH 8 0
BBX 8 16 0 -4
BITMAP
36
36
36
36
36
37
30
3F
00
00
00
00
00
00
00
00
ENDCHAR
STARTCHAR u00E8
ENCODING 232
SWIDTH 666 0
DWIDTH 8 0
BBX 8 16 0 -4
BITMAP
00
00
60
30
18
00
7C
C6
FE
C0
C0
C6
7C
00
00
00
ENDCHAR
STARTCHAR u0071
ENCODING 113
SWIDTH 666 0
DWIDTH 8 0
BBX 8 16 0 -4
BITMAP
00
00
00
00
00
00
76
CC
CC
CC
CC
CC
7C
0C
0C
1E
ENDCHAR
STARTCHAR u255F
ENCODING 9567
SWIDTH 666 0
DWIDTH 8 0
BBX 8 16 0 -4
BITMAP
36
36
36
36
36
36
36
37
36
36
36
36
36
36
36
36
ENDCHAR
STARTCHAR u00E1
ENCODING 225
SWIDTH 666 0
DWIDTH 8 0
BBX 8 16 0 -4
BITMAP
00
00
18
30
60
00
78
0C
7C
CC
CC
CC
76
00
00
00
ENDCHAR
STARTCHAR u00CF
ENCODING 207
SWIDTH 666 0
DWIDTH 8 0
BBX 8 16 0 -4
BITMAP
00
00
66
00
3C
18
18
18
18
18
18
18
3C
00
00
00
ENDCHAR
STARTCHAR u010A
ENCODING 266
SWIDTH 666 0
DWIDTH 8 0
BBX 8 16 0 -4
BITMAP
00
18
00
3C
66
C2
C0
C0
C0
C0
C2
66
3C
00
00
00
ENDCHAR
STARTCHAR u005B
ENCODING 91
SWIDTH 666 0
DWIDTH 8 0
BBX 8 16 0 -4
BITMAP
00
00
00
3C
30
30
30
30
30
30
30
30
3C
00
00
00
ENDCHAR
STARTCHAR u00A7
ENCODING 167
SWIDTH 666 0
DWIDTH 8 0
BBX 8 16 0 -4
BITMAP
00
7C
C6
60
38
6C
C6
C6
6C
38
0C
C6
7C
00
00
00
ENDCHAR
STARTCHAR u0030
ENCODING 48
SWIDTH 666 0
DWIDTH 8 0
BBX 8 16 0 -4
BITMAP
00
00
00
38
6C
C6
C6
D6
D6
C6
C6
6C
38
00
00
00
ENDCHAR
STARTCHAR u006B
ENCODING 107
SWIDTH 666 0
DWIDTH 8 0
BBX 8 16 0 -4
BITMAP
00
00
00
E0
60
60
66
6C
78
78
6C
66
E6
00
00
00
ENDCHAR
STARTCHAR u1E02
ENCODING 7682
SWIDTH 666 0
DWIDTH 8 0
BBX 8 16 0 -4
BITMAP
00
30
00
FC
66
66
66
7C
66
66
66
66
FC
00
00
00
ENDCHAR
STARTCHAR u0057
ENCODING 87
SWIDTH 666 0
DWIDTH 8 0
BBX 8 16 0 -4
BITMAP
00
00
00
C6
C6
C6
C6
D6
D6
D6
FE
EE
6C
00
00
00
ENDCHAR
STARTCHAR u004D
ENCODING 77
SWIDTH 666 0
DWIDTH 8 0
BBX 8 16 0 -4
BITMAP
00
00
00
C6
EE
FE
FE
D6
C6
C6
C6
C6
C6
00
00
00
ENDCHAR
STARTCHAR u00D6
ENCODING 214
SWIDTH 666 0
DWIDTH 8 0
BBX 8 16 0 -4
BITMAP
00
00
C6
00
7C
C6
C6
C6
C6
C6
C6
C6
7C
00
00
00
ENDCHAR
STARTCHAR u007B
ENCODING 123
SWIDTH 666 0
DWIDTH 8 0
BBX 8 16 0 -4
BITMAP
00
00
00
0E
18
18
18
70
18
18
18
18
0E
00
00
00
ENDCHAR
STARTCHAR u00DD
ENCODING 221
SWIDTH 666 0
DWIDTH 8 0
BBX 8 16 0 -4
BITMAP
00
0C
18
00
66
66
66
66
3C
18
18
18
3C
00
00
00
ENDCHAR
STARTCHAR u0032
ENCODING 50
SWIDTH 666 0
DWIDTH 8 0
BBX 8 16 0 -4
BITMAP
00
00
00
7C
C6
06
0C
18
30
60
C0
C6
FE
00
00
00
ENDCHAR
STARTCHAR u0027
ENCODING 39
SWIDTH 666 0
DWIDTH 8 0
BBX 8 16 0 -4
BITMAP
00
00
30
30
30
60
00
00
00
00
00
00
00
00
00
00
ENDCHAR
STARTCHAR u2556
ENCODING 9558
SWIDTH 666 0
DWIDTH 8 0
BBX 8 16 0 -4
BITMAP
00
00
00
00
00
00
00
FE
36
36
36
36
36
36
36
36
ENDCHAR
STARTCHAR u00D2
ENCODING 210
SWIDTH 666 0
DWIDTH 8 0
BBX 8 16 0 -4
BITMAP
00
30
18
00
7C
C6
C6
C6
C6
C6
C6
C6
7C
00
00
00
ENDCHAR
STARTCHAR u0040
ENCODING 64
SWIDTH 666 0
DWIDTH 8 0
BBX 8 16 0 -4
BITMAP
00
00
00
00
7C
C6
C6
DE
DE
DE
DC
C0
7C
00
00
00
ENDCHAR
STARTCHAR u0061
ENCODING 97
SWIDTH 666 0
DWIDTH 8 0
BBX 8 16 0 -4
BITMAP
00
00
00
00
00
00
78
0C
7C
CC
CC
CC
76
00
00
00
ENDCHAR
STARTCHAR u1E60
ENCODING 7776
SWIDTH 666 0
DWIDTH 8 0
BBX 8 16 0 -4
BITMAP
00
18
00
7C
C6
C6
60
38
0C
06
C6
C6
7C
00
00
00
ENDCHAR
STARTCHAR u0029
ENCODING 41
SWIDTH 666 0
DWIDTH 8 0
BBX 8 16 0 -4
BITMAP
00
00
00
30
18
0C
0C
0C
0C
0C
0C
18
30
00
00
00
ENDCHAR
STARTCHAR u0034
ENCODING 52
SWIDTH 666 0
DWIDTH 8 0
BBX 8 16 0 -4
BITMAP
00
00
00
0C
1C
3C
6C
CC
FE
0C
0C
0C
1E
00
00
00
ENDCHAR
STARTCHAR u2566
ENCODING 9574
SWIDTH 666 0
DWIDTH 8 0
BBX 8 16 0 -4
BITMAP
00
00
00
00
00
FF
00
F7
36
36
36
36
36
36
36
36
ENDCHAR
STARTCHAR u00AD
ENCODING 173
SWIDTH 666 0
DWIDTH 8 0
BBX 8 16 0 -4
BITMAP
00
00
00
00
00
00
00
FE
00
00
00
00
00
00
00
00
ENDCHAR
STARTCHAR u2567
ENCODING 9575
SWIDTH 666 0
DWIDTH 8 0
BBX 8 16 0 -4
BITMAP
18
18
18
18
18
FF
00
FF
00
00
00
00
00
00
00
00
ENDCHAR
STARTCHAR u0038
ENCODING 56
SWIDTH 666 0
DWIDTH 8 0
BBX 8 16 0 -4
BITMAP
00
00
00
7C
C6
C6
C6
7C
C6
C6
C6
C6
7C
00
00
00
ENDCHAR
STARTCHAR u2502
ENCODING 9474
SWIDTH 666 0
DWIDTH 8 0
BBX 8 16 0 -4
BITMAP
18
18
18
18
18
18
18
18
18
18
18
18
18
18
18
18
ENDCHAR
STARTCHAR u00E5
ENCODING 229
SWIDTH 666 0
DWIDTH 8 0
BBX 8 16 0 -4
BITMAP
00
00
38
6C
38
00
78
0C
7C
CC
CC
CC
76
00
00
00
ENDCHAR
STARTCHAR u002D
ENCODING 45
SWIDTH 666 0
DWIDTH 8 0
BBX 8 16 0 -4
BITMAP
00
00
00
00
00
00
00
00
FE
00
00
00
00
00
00
00
ENDCHAR
STARTCHAR u0042
ENCODING 66
SWIDTH 666 0
DWIDTH 8 0
BBX 8 16 0 -4
BITMAP
00
00
00
FC
66
66
66
7C
66
66
66
66
FC
00
00
00
ENDCHAR
STARTCHAR u0036
ENCODING 54
SWIDTH 666 0
DWIDTH 8 0
BBX 8 16 0 -4
BITMAP
00
00
00
38
60
C0
C0
FC
C6
C6
C6
C6
7C
00
00
00
ENDCHAR
STARTCHAR u00ED
ENCODING 237
SWIDTH 666 0
DWIDTH 8 0
BBX 8 16 0 -4
BITMAP
00
00
0C
18
30
00
38
18
18
18
18
18
3C
00
00
00
ENDCHAR
STARTCHAR u1E83
ENCODING 7811
SWIDTH 666 0
DWIDTH 8 0
BBX 8 16 0 -4
BITMAP
00
00
00
0C
18
00
C6
C6
D6
D6
D6
FE
6C
00
00
00
ENDCHAR
STARTCHAR u0046
ENCODING 70
SWIDTH 666 0
DWIDTH 8 0
BBX 8 16 0 -4
BITMAP
00
00
00
FE
66
62
68
78
68
60
60
60
F0
00
00
00
ENDCHAR
STARTCHAR u0044
ENCODING 68
SWIDTH 666 0
DWIDTH 8 0
BBX 8 16 0 -4
BITMAP
00
00
00
F8
6C
66
66
66
66
66
66
6C
F8
00
00
00
ENDCHAR
STARTCHAR u0177
ENCODING 375
SWIDTH 666 0
DWIDTH 8 0
BBX 8 16 0 -4
BITMAP
00
00
10
38
6C
00
C6
C6
C6
C6
C6
C6
7E
06
0C
F8
ENDCHAR
STARTCHAR u0058
ENCODING 88
SWIDTH 666 0
DWIDTH 8 0
BBX 8 16 0 -4
BITMAP
00
00
00
C6
C6
6C
7C
38
38
7C
6C
C6
C6
00
00
00
ENDCHAR
STARTCHAR u0074
ENCODING 116
SWIDTH 666 0
DWIDTH 8 0
BBX 8 16 0 -4
BITMAP
00
00
00
10
30
30
FC
30
30
30
30
36
1C
00
00
00
ENDCHAR
STARTCHAR u0064
ENCODING 100
SWIDTH 666 0
DWIDTH 8 0
BBX 8 16 0 -4
BITMAP
00
00
00
1C
0C
0C
3C
6C
CC
CC
CC
CC
76
00
00
00
ENDCHAR
STARTCHAR u2557
ENCODING 9559
SWIDTH 666 0
DWIDTH 8 0
BBX 8 16 0 -4
BITMAP
00
00
00
00
00
FE
06
F6
36
36
36
36
36
36
36
36
ENDCHAR
STARTCHAR u2500
ENCODING 9472
SWIDTH 666 0
DWIDTH 8 0
BBX 8 16 0 -4
BITMAP
00
00
00
00
00
00
00
FF
00
00
00
00
00
00
00
00
ENDCHAR
STARTCHAR u00FC
ENCODING 252
SWIDTH 666 0
DWIDTH 8 0
BBX 8 16 0 -4
BITMAP
00
00
00
CC
00
00
CC
CC
CC
CC
CC
CC
76
00
00
00
ENDCHAR
STARTCHAR u0078
ENCODING 120
SWIDTH 666 0
DWIDTH 8 0
BBX 8 16 0 -4
BITMAP
00
00
00
00
00
00
C6
6C
38
38
38
6C
C6
00
00
00
ENDCHAR
STARTCHAR u0053
ENCODING 83
SWIDTH 666 0
DWIDTH 8 0
BBX 8 16 0 -4
BITMAP
00
00
00
7C
C6
C6
60
38
0C
06
C6
C6
7C
00
00
00
ENDCHAR
STARTCHAR u004B
ENCODING 75
SWIDTH 666 0
DWIDTH 8 0
BBX 8 16 0 -4
BITMAP
00
00
00
E6
66
66
6C
78
78
6C
66
66
E6
00
00
00
ENDCHAR
STARTCHAR u0028
ENCODING 40
SWIDTH 666 0
DWIDTH 8 0
BBX 8 16 0 -4
BITMAP
00
00
00
0C
18
30
30
30
30
30
30
18
0C
00
00
00
ENDCHAR
STARTCHAR u00FA
ENCODING 250
SWIDTH 666 0
DWIDTH 8 0
BBX 8 16 0 -4
BITMAP
00
00
18
30
60
00
CC
CC
CC
CC
CC
CC
76
00
00
00
ENDCHAR
STARTCHAR u00C0
ENCODING 192
SWIDTH 666 0
DWIDTH 8 0
BBX 8 16 0 -4
BITMAP
00
0C
06
10
38
6C
C6
C6
FE
C6
C6
C6
C6
00
00
00
ENDCHAR
STARTCHAR u0131
ENCODING 305
SWIDTH 666 0
DWIDTH 8 0
BBX 8 16 0 -4
BITMAP
00
00
00
00
00
00
38
18
18
18
18
18
3C
00
00
00
ENDCHAR
STARTCHAR u003B
ENCODING 59
SWIDTH 666 0
DWIDTH 8 0
BBX 8 16 0 -4
BITMAP
00
00
00
00
00
18
18
00
00
00
18
18
30
00
00
00
ENDCHAR
STARTCHAR u0175
ENCODING 373
SWIDTH 666 0
DWIDTH 8 0
BBX 8 16 0 -4
BITMAP
00
00
10
38
6C
00
C6
C6
D6
D6
D6
FE
6C
00
00
00
ENDCHAR
STARTCHAR u00D9
ENCODING 217
SWIDTH 666 0
DWIDTH 8 0
BBX 8 16 0 -4
BITMAP
00
30
18
00
C6
C6
C6
C6
C6
C6
C6
C6
7C
00
00
00
ENDCHAR
STARTCHAR u0035
ENCODING 53
SWIDTH 666 0
DWIDTH 8 0
BBX 8 16 0 -4
BITMAP
00
00
00
FE
C0
C0
C0
FC
06
06
06
C6
7C
00
00
00
ENDCHAR
STARTCHAR u2562
ENCODING 9570
SWIDTH 666 0
DWIDTH 8 0
BBX 8 16 0 -4
BITMAP
36
36
36
36
36
36
36
F6
36
36
36
36
36
36
36
36
ENDCHAR
STARTCHAR u00F5
ENCODING 245
SWIDTH 666 0
DWIDTH 8 0
BBX 8 16 0 -4
BITMAP
00
00
00
76
DC
00
7C
C6
C6
C6
C6
C6
7C
00
00
00
ENDCHAR
STARTCHAR u00EF
ENCODING 239
SWIDTH 666 0
DWIDTH 8 0
BBX 8 16 0 -4
BITMAP
00
00
00
66
00
00
38
18
18
18
18
18
3C
00
00
00
ENDCHAR
STARTCHAR u010B
ENCODING 267
SWIDTH 666 0
DWIDTH 8 0
BBX 8 16 0 -4
BITMAP
00
00
00
00
18
00
7C
C6
C0
C0
C0
C6
7C
00
00
00
ENDCHAR
STARTCHAR u007A
ENCODING 122
SWIDTH 666 0
DWIDTH 8 0
BBX 8 16 0 -4
BITMAP
00
00
00
00
00
00
FE
CC
18
30
60
C6
FE
00
00
00
ENDCHAR
STARTCHAR u2560
ENCODING 9568
SWIDTH 666 0
DWIDTH 8 0
BBX 8 16 0 -4
BITMAP
36
36
36
36
36
37
30
37
36
36
36
36
36
36
36
36
ENDCHAR
STARTCHAR u252C
ENCODING 9516
SWIDTH 666 0
DWIDTH 8 0
BBX 8 16 0 -4
BITMAP
00
00
00
00
00
00
00
FF
18
18
18
18
18
18
18
18
ENDCHAR
STARTCHAR u00CD
ENCODING 205
SWIDTH 666 0
DWIDTH 8 0
BBX 8 16 0 -4
BITMAP
00
0C
18
00
3C
18
18
18
18
18
18
18
3C
00
00
00
ENDCHAR
STARTCHAR u002A
ENCODING 42
SWIDTH 666 0
DWIDTH 8 0
BBX 8 16 0 -4
BITMAP
00
00
00
00
00
00
66
3C
FF
3C
66
00
00
00
00
00
ENDCHAR
STARTCHAR u00DB
ENCODING 219
SWIDTH 666 0
DWIDTH 8 0
BBX 8 16 0 -4
BITMAP
00
38
6C
00
C6
C6
C6
C6
C6
C6
C6
C6
7C
00
00
00
ENDCHAR
STARTCHAR u002E
ENCODING 46
SWIDTH 666 0
DWIDTH 8 0
BBX 8 16 0 -4
BITMAP
00
00
00
00
00
00
00
00
00
00
00
18
18
00
00
00
ENDCHAR
STARTCHAR u255C
ENCODING 9564
SWIDTH 666 0
DWIDTH 8 0
BBX 8 16 0 -4
BITMAP
36
36
36
36
36
36
36
FE
00
00
00
00
00
00
00
00
ENDCHAR
STARTCHAR u00EB
ENCODING 235
SWIDTH 666 0
DWIDTH 8 0
BBX 8 16 0 -4
BITMAP
00
00
00
C6
00
00
7C
C6
FE
C0
C0
C6
7C
00
00
00
ENDCHAR
STARTCHAR u0069
ENCODING 105
SWIDTH 666 0
DWIDTH 8 0
BBX 8 16 0 -4
BITMAP
00
00
00
18
18
00
38
18
18
18
18
18
3C
00
00
00
ENDCHAR
STARTCHAR u255B
ENCODING 9563
SWIDTH 666 0
DWIDTH 8 0
BBX 8 16 0 -4
BITMAP
18
18
18
18
18
F8
18
F8
00
00
00
00
00
00
00
00
ENDCHAR
STARTCHAR u1E6B
ENCODING 7787
SWIDTH 666 0
DWIDTH 8 0
BBX 8 16 0 -4
BITMAP
00
30
00
10
30
30
FC
30
30
30
30
36
1C
00
00
00
ENDCHAR
STARTCHAR u1E1F
ENCODING 7711
SWIDTH 666 0
DWIDTH 8 0
BBX 8 16 0 -4
BITMAP
00
18
00
1C
36
32
30
78
30
30
30
30
78
00
00
00
ENDCHAR
STARTCHAR u0055
ENCODING 85
SWIDTH 666 0
DWIDTH 8 0
BBX 8 16 0 -4
BITMAP
00
00
00
C6
C6
C6
C6
C6
C6
C6
C6
C6
7C
00
00
00
ENDCHAR
STARTCHAR u0024
ENCODING 36
SWIDTH 666 0
DWIDTH 8 0
BBX 8 16 0 -4
BITMAP
00
18
18
7C
C6
C2
C0
7C
06
06
86
C6
7C
18
18
00
ENDCHAR
STARTCHAR u00F8
ENCODING 248
SWIDTH 666 0
DWIDTH 8 0
BBX 8 16 0 -4
BITMAP
00
00
00
00
00
00
7C
CE
DE
F6
E6
C6
7C
00
00
00
ENDCHAR
STARTCHAR u00D5
ENCODING 213
SWIDTH 666 0
DWIDTH 8 0
BBX 8 16 0 -4
BITMAP
00
76
DC
00
7C
C6
C6
C6
C6
C6
C6
C6
7C
00
00
00
ENDCHAR
STARTCHAR u005E
ENCODING 94
SWIDTH 666 0
DWIDTH 8 0
BBX 8 16 0 -4
BITMAP
00
10
38
6C
C6
00
00
00
00
00
00
00
00
00
00
00
ENDCHAR
STARTCHAR u0033
ENCODING 51
SWIDTH 666 0
DWIDTH 8 0
BBX 8 16 0 -4
BITMAP
00
00
00
7C
C6
06
06
3C
06
06
06
C6
7C
00
00
00
ENDCHAR
STARTCHAR u006F
ENCODING 111
SWIDTH 666 0
DWIDTH 8 0
BBX 8 16 0 -4
BITMAP
00
00
00
00
00
00
7C
C6
C6
C6
C6
C6
7C
00
00
00
ENDCHAR
STARTCHAR u0026
ENCODING 38
SWIDTH 666 0
DWIDTH 8 0
BBX 8 16 0 -4
BITMAP
00
00
00
38
6C
6C
38
76
DC
CC
CC
CC
76
00
00
00
ENDCHAR
STARTCHAR u1E57
ENCODING 7767
SWIDTH 666 0
DWIDTH 8 0
BBX 8 16 0 -4
BITMAP
00
00
00
00
18
00
DC
66
66
66
66
66
7C
60
60
F0
ENDCHAR
STARTCHAR u0022
ENCODING 34
SWIDTH 666 0
DWIDTH 8 0
BBX 8 16 0 -4
BITMAP
00
00
66
66
66
24
00
00
00
00
00
00
00
00
00
00
ENDCHAR
STARTCHAR u00A9
ENCODING 169
SWIDTH 666 0
DWIDTH 8 0
BBX 8 16 0 -4
BITMAP
00
00
7C
82
9A
A2
A2
A2
9A
82
7C
00
00
00
00
00
ENDCHAR
STARTCHAR u00C4
ENCODING 196
SWIDTH 666 0
DWIDTH 8 0
BBX 8 16 0 -4
BITMAP
00
00
C6
00
10
38
6C
C6
C6
FE
C6
C6
C6
00
00
00
ENDCHAR
STARTCHAR u1E80
ENCODING 7808
SWIDTH 666 0
DWIDTH 8 0
BBX 8 16 0 -4
BITMAP
30
18
00
C6
C6
C6
C6
D6
D6
D6
FE
EE
6C
00
00
00
ENDCHAR
STARTCHAR u00F2
ENCODING 242
SWIDTH 666 0
DWIDTH 8 0
BBX 8 16 0 -4
BITMAP
00
00
60
30
18
00
7C
C6
C6
C6
C6
C6
7C
00
00
00
ENDCHAR
STARTCHAR u2593
ENCODING 9619
SWIDTH 666 0
DWIDTH 8 0
BBX 8 16 0 -4
BITMAP
DD
77
DD
77
DD
77
DD
77
DD
77
DD
77
DD
77
DD
77
ENDCHAR
ENDFONT
